<mxfile host="app.diagrams.net" agent="Mozilla/5.0 (Windows NT 10.0; Win64; x64) AppleWebKit/537.36 (KHTML, like Gecko) Chrome/138.0.0.0 Safari/537.36 Edg/138.0.0.0" version="28.0.6">
  <diagram name="Page-1" id="OuAYIHfGWdpgrEzH8BKs">
    <mxGraphModel dx="1019" dy="949" grid="0" gridSize="10" guides="1" tooltips="1" connect="1" arrows="1" fold="1" page="0" pageScale="1" pageWidth="850" pageHeight="1100" math="0" shadow="0">
      <root>
        <mxCell id="0" />
        <mxCell id="1" parent="0" />
        <mxCell id="L6e3kt8jXr_9C_HNMLi3-2" value="" style="shape=image;verticalLabelPosition=bottom;labelBackgroundColor=default;verticalAlign=top;aspect=fixed;imageAspect=0;image=data:image/png,iVBORw0KGgoAAAANSUhEUgAAAGQAAABkCAYAAABw4pVUAAAAAXNSR0IArs4c6QAABwFJREFUeAHtnGXINUUUx/8Gdgd2YGNhKxYqimB+sfODoiKCGKCIjQWKgqBiYHxReQ2w8IMoiq2IgiK2Ygd2t/O73L3MPe/s3efGzu7jPQce9j4bc87+z87MqRnJyRFwBBwBR8ARcAQcAUfAEXAEHAFHwBFwBBwBR8ARcAQcAUfAEXAEHAFHwBFwBEZGYElJe0q6QNI9kp6Q9KqkTyV9KeldSS91r10q6VBJK47MzR9MIrCspJO7QP8t6d8R/l4LLZ8vae0kBz85IwQ2lXSnpN9GUECZ0v6R9IikXWYkgd/UQWAFSTdI+muCikgp6HFJKN1pAALHSvphgCIYsl6RdLWkI8IcsmuYLzYJClxZ0vKS1pK0taTDJV0i6SlJfwxo709JV0hacIBMU3lpEUm3DQAOJRwvaekR0Flc0tGSHhvQPobAOiO0/b98ZDVJTLqpYYXxfvsJvvUWYZi6t4TXt0FpO0+Q16xsatUw9LyTAOhjSQfX+Ea7B5P4zQTfXyXtXyPfVje9Shjr306AwhfMMFM3LSrplgT/3yXtUTfztrW/cHdyjocpTNKLgtM3T2ZhT5Jk/RsMi80zy9EouxvNl4kyjmlQokMSZjZe/1INypSN9VFGGfSSs7JxL2fEB8GHEffau8pvb+eV9SUdJumUYMsTOzpHEr4EvkGKlgthEKyZ+KWvS93Y0LnLjGzI2fpJHgcMp+uthPAx0J9IulASnndB15hnMHfb5JTN33Um4/f4QBJ+UutogQDmeRWedPwixe9fwvh8tqTNJOEZF+cJjWzTureU1kvEzxgBWkWEsAlDFGCOcoyVwfNXteoN+4VhBIjfkd6+UP8tzf23RrCAPjICFsL+HMzD+yRdGb6qM7tD1K2S6ObFPakjDlib8xSEaL4374Ax0jiRECIBZEF9XxIC4k+U0VaSHkg8S1uYvW0nO8ETxmmcMPusMgBzmIl4PzPvYFpu0PibVQuwrjGDcR5Xqn6svjt2SyiDrNsotLGkz7vtMRfNFnrOYHBkk4K/bIS5fcywBkr5KijmhCZfakjeWJXxCEHsqxEijhML8p0kctvjEqbvMuM2kvH5nQwOr2fk3cfqciMIVR7TSESd43AKkWCcx+z0olHIhtklaA9DcjPxaNFI5UpsgyPQNJOd2LfNDcaW5ot4NrcALeOH/xH3ELKNWYgKDhw5m6y5Pwv39jJ50Chkr7pFpYSmLPHPl/FQ3QK0vP0njUL2rVNechmYtHGXjH9TftO6SGedgCTaTlXEfNH9UM+YlPdO3vpcY9IVisCjJo9BGNpJ+nrABwtmFOLdHUpUdxgHLJsoomEisISdc1R8jCN7zmeJ+hYfatURf+XmURzo0xNM3usmkHK+7GzghUKO6/6dGAQmlkdw1YaVYmWxLGLGZUR7J6wozNpJhEVmA8CTlHFNSadFQdNYKXj0rE0ZSEuEAgTrdRKbcWUMhK3y4mLhDnqOXTaB+0DBRylRMR5rEW8cLTtNBgEm9SLFUOBMT9ku1TwFzTanTTW502QRWD2Rvv6wu1Sij9PFpne8MGZuo69x/6cPAVIMPxm8r4/voHyHmb/oRhzrrCyPeU/rbxYTxXjjq7CYqEOMbfFFSloaiekXAk3BEcf7eYN7L9tI3WyskN6FKQCmyVckWBvjjuONpauHzYVGE/VNItQAbxzuWCmdqcLWVfnK03yaoTozVsi1sP7MnGy0tigfFq3gRO4kVsjTSGWXBWN1OeVBgNKnWCF0DlF9Hp8cVP6ZR8zp4ULJU4w9uuhszBKfxGt3yoMAH3+MPaOVGLfik9mS9HneudVccAZj7L9B2pvMSZadOeVBYEeDPengzrYSsZaeySOLcwlV/6cahZDqFQv049IeUo2eL8/zvbDBWtwZegUjj5oLVLI71YsA/p7dYmqjguVBRiH0GDZicaoPAZZ7x72DkqoezSfpDXMDufRhVkL1GvMflQiwfr8yIbiPUQja88hvJbZD38CadvbfinsHWcPkx59aM+hm8NCYlz5AHoR9ImNl8PvAsifYTMWGhIuektRgWUN+fi4E6BkpZVTul8JMj8dotcg6CJYiOA2PAHOGHabAl3mbpeWVRGlKSin4KHeEPxg4VSOAaYs1ZSdwlMFmC0OVWdFTUsNX0XOwwliFSuyL8hZ2YJtmYmsNYlOEQ/DAcfqsn1FgR88YShkFsMwpcxLDV9GwH+ce2qswITwyo2GqUELqSM0vZaVVzPx6OUaYtqXWVAr0qnPzhu1aD+huxR3HvlwJ5UoAm2JP4VqtVHbqoTqFLb9Z0kXq8ccp70HMFxhCFI0wLBEo7MWmqr52v+4IOAKOgCPgCDgCjoAj4Ag4Ao6AI+AIOAKOgCPgCDgCjoAj4Ag4Ao6AI+AIOAKOgCPgCDgCgxH4D7xGBraH/JEqAAAAAElFTkSuQmCC;" vertex="1" parent="1">
          <mxGeometry x="336" y="-120" width="221" height="221" as="geometry" />
        </mxCell>
        <mxCell id="L6e3kt8jXr_9C_HNMLi3-5" value="" style="sketch=0;points=[[0,0,0],[0.25,0,0],[0.5,0,0],[0.75,0,0],[1,0,0],[0,1,0],[0.25,1,0],[0.5,1,0],[0.75,1,0],[1,1,0],[0,0.25,0],[0,0.5,0],[0,0.75,0],[1,0.25,0],[1,0.5,0],[1,0.75,0]];outlineConnect=0;fontColor=#232F3E;fillColor=#7AA116;strokeColor=#ffffff;dashed=0;verticalLabelPosition=bottom;verticalAlign=top;align=center;html=1;fontSize=12;fontStyle=0;aspect=fixed;shape=mxgraph.aws4.resourceIcon;resIcon=mxgraph.aws4.s3;" vertex="1" parent="1">
          <mxGeometry x="421.5" y="-23" width="50" height="50" as="geometry" />
        </mxCell>
        <mxCell id="L6e3kt8jXr_9C_HNMLi3-6" value="" style="strokeColor=#666666;html=1;labelPosition=right;align=left;spacingLeft=15;shadow=0;dashed=0;outlineConnect=0;shape=mxgraph.rack.dell.poweredge_r540;" vertex="1" parent="1">
          <mxGeometry x="367" y="336" width="162" height="27" as="geometry" />
        </mxCell>
        <mxCell id="L6e3kt8jXr_9C_HNMLi3-7" value="" style="strokeColor=#666666;html=1;labelPosition=right;align=left;spacingLeft=15;shadow=0;dashed=0;outlineConnect=0;shape=mxgraph.rack.dell.poweredge_r540;" vertex="1" parent="1">
          <mxGeometry x="367" y="367" width="162" height="27" as="geometry" />
        </mxCell>
        <mxCell id="L6e3kt8jXr_9C_HNMLi3-8" value="" style="strokeColor=#666666;html=1;labelPosition=right;align=left;spacingLeft=15;shadow=0;dashed=0;outlineConnect=0;shape=mxgraph.rack.dell.poweredge_r540;" vertex="1" parent="1">
          <mxGeometry x="367" y="305" width="162" height="27" as="geometry" />
        </mxCell>
      </root>
    </mxGraphModel>
  </diagram>
</mxfile>
